<svg width="24" height="24" viewBox="0 0 24 24" fill="none" xmlns="http://www.w3.org/2000/svg">
<path d="M6.72857 2.31686L8.38886 1.81629C8.93681 1.65135 9.52605 1.69137 10.0467 1.92889C10.5673 2.16641 10.9837 2.5852 11.2183 3.10715L12.3823 5.69572C12.5843 6.1448 12.6406 6.64587 12.5433 7.12858C12.446 7.6113 12.1999 8.05142 11.8397 8.38715L10.068 10.038C9.83057 10.2634 10.0106 11.142 10.878 12.6454C11.7463 14.1497 12.4174 14.7446 12.7269 14.652L15.048 13.9423C15.5185 13.7984 16.0222 13.8053 16.4886 13.9621C16.955 14.1189 17.3606 14.4177 17.6486 14.8166L19.3029 17.1094C19.637 17.5724 19.7917 18.141 19.7383 18.7095C19.6848 19.2779 19.4269 19.8077 19.0123 20.2003L17.7334 21.4114C17.3206 21.8024 16.8114 22.0769 16.2579 22.2068C15.7044 22.3368 15.1263 22.3175 14.5826 22.1511C11.9031 21.3309 9.42171 18.8966 7.10485 14.8826C4.78285 10.8626 3.906 7.47172 4.51714 4.70143C4.6404 4.14322 4.9103 3.62798 5.29902 3.20883C5.68774 2.78968 6.18121 2.48177 6.72857 2.31686Z" fill="#404553"/>
</svg>
