<svg width="24" height="24" viewBox="0 0 24 24" fill="none" xmlns="http://www.w3.org/2000/svg">
<path d="M19.633 7.99701C19.646 8.17201 19.646 8.34601 19.646 8.52001C19.646 13.845 15.593 19.981 8.186 19.981C5.904 19.981 3.784 19.32 2 18.172C2.324 18.209 2.636 18.222 2.973 18.222C4.78599 18.2264 6.54765 17.6202 7.974 16.501C7.13342 16.4858 6.31858 16.2085 5.64324 15.7077C4.9679 15.207 4.46578 14.5079 4.207 13.708C4.456 13.745 4.706 13.77 4.968 13.77C5.329 13.77 5.692 13.72 6.029 13.633C5.11676 13.4488 4.29647 12.9544 3.70762 12.2337C3.11876 11.513 2.79769 10.6107 2.799 9.68001V9.63001C3.336 9.92901 3.959 10.116 4.619 10.141C4.06609 9.7736 3.61272 9.27504 3.29934 8.6898C2.98596 8.10457 2.82231 7.45087 2.823 6.78701C2.823 6.03901 3.022 5.35301 3.371 4.75501C4.38314 6.00003 5.6455 7.01857 7.07634 7.74467C8.50717 8.47077 10.0746 8.88823 11.677 8.97001C11.615 8.67001 11.577 8.35901 11.577 8.04701C11.5767 7.51797 11.6807 6.99407 11.8831 6.50525C12.0854 6.01643 12.3821 5.57229 12.7562 5.1982C13.1303 4.82411 13.5744 4.52742 14.0632 4.32509C14.5521 4.12276 15.076 4.01875 15.605 4.01901C16.765 4.01901 17.812 4.50501 18.548 5.29101C19.4498 5.11663 20.3145 4.78743 21.104 4.31801C20.8034 5.24883 20.1738 6.03812 19.333 6.53801C20.1328 6.44679 20.9144 6.23647 21.652 5.91401C21.1011 6.71711 20.4185 7.42136 19.633 7.99701Z" fill="#404553"/>
</svg>
